<?xml version="1.0" standalone="no"?>
<!DOCTYPE svg PUBLIC "-//W3C//DTD SVG 20010904//EN"
 "http://www.w3.org/TR/2001/REC-SVG-20010904/DTD/svg10.dtd">
<svg version="1.0" xmlns="http://www.w3.org/2000/svg"
 width="1024.000000pt" height="1024.000000pt" viewBox="0 0 1024.000000 1024.000000"
 preserveAspectRatio="xMidYMid meet">
<metadata>
Created by potrace 1.14, written by Peter Selinger 2001-2017
</metadata>
<g transform="translate(0.000000,1024.000000) scale(0.100000,-0.100000)"
fill="#000000" stroke="none">
<path d="M7225 7469 c-271 -12 -536 -97 -730 -235 -38 -28 -95 -68 -125 -89
-105 -74 -239 -206 -380 -375 -118 -142 -132 -155 -155 -146 -13 5 -44 62 -50
93 -7 29 -78 164 -100 187 -13 14 -22 26 -19 26 6 0 -24 48 -47 75 -89 106
-189 206 -189 188 0 -4 -17 9 -37 29 -21 20 -56 46 -78 58 -22 11 -47 25 -55
29 -8 4 -28 16 -45 25 -16 10 -38 20 -47 23 -10 3 -18 9 -18 14 0 14 -40 10
-40 -3 0 -7 -5 -5 -11 5 -5 9 -19 17 -29 17 -11 0 -20 6 -20 13 0 9 -3 8 -9
-2 -7 -11 -9 -11 -14 0 -4 11 -6 11 -6 0 -1 -11 -5 -10 -17 5 -8 10 -12 13 -8
5 4 -9 2 -12 -7 -9 -8 3 -13 10 -12 15 1 5 -4 10 -12 10 -8 0 -11 -7 -8 -16 4
-11 1 -10 -9 3 -8 10 -20 16 -26 12 -7 -4 -12 -3 -12 1 0 5 -9 9 -20 10 -11 1
-18 -2 -15 -7 3 -6 -1 -7 -9 -4 -9 3 -13 11 -9 18 4 6 -1 5 -10 -3 -10 -8 -20
-11 -24 -8 -3 4 -12 2 -20 -5 -11 -9 -13 -8 -11 2 2 7 -6 14 -17 15 -11 1 -27
6 -36 9 -10 4 -20 3 -24 -3 -3 -6 -16 -11 -29 -11 -12 0 -26 -3 -29 -7 -11
-10 -66 -9 -59 2 3 6 -2 4 -11 -4 -13 -10 -17 -10 -17 -1 0 8 -7 10 -17 5 -28
-11 -63 -13 -57 -4 3 5 -2 9 -10 9 -8 0 -18 -4 -21 -10 -3 -5 -16 -8 -28 -6
-12 2 -31 -4 -42 -13 -18 -15 -19 -15 -6 2 17 22 9 33 -10 14 -18 -18 -59 -28
-59 -15 0 6 -6 6 -14 -2 -8 -6 -23 -10 -34 -8 -10 2 -27 -3 -36 -11 -12 -10
-20 -11 -27 -4 -17 17 -49 3 -49 -21 0 -17 -2 -18 -10 -6 -7 11 -10 11 -10 2
0 -8 -5 -10 -12 -5 -18 11 -38 13 -38 3 0 -4 10 -10 22 -13 12 -4 20 -9 16
-12 -3 -3 -16 -1 -30 4 -15 5 -30 6 -39 0 -8 -5 -10 -9 -6 -9 5 0 2 -6 -5 -13
-16 -16 -60 -17 -71 -3 -5 7 -7 4 -3 -7 7 -22 -39 -43 -59 -27 -10 8 -20 4
-39 -14 -19 -17 -23 -26 -14 -29 11 -4 10 -6 0 -6 -7 -1 -10 -5 -7 -11 5 -9
-21 -14 -62 -13 -7 1 -13 -4 -13 -11 0 -7 -3 -7 -8 2 -7 9 -13 8 -27 -8 -18
-20 -18 -21 0 -14 18 7 18 7 -1 -13 -10 -11 -22 -18 -26 -16 -5 2 -8 -1 -8 -7
0 -6 -5 -8 -10 -5 -6 4 -9 1 -8 -7 2 -7 -5 -12 -14 -12 -10 1 -16 -2 -13 -6 3
-4 -8 -13 -25 -18 -19 -7 -32 -20 -36 -36 -3 -14 -12 -26 -20 -26 -8 0 -14 -5
-14 -11 0 -6 -7 -9 -14 -6 -9 4 -17 -2 -21 -14 -4 -10 -11 -19 -16 -19 -6 0
-8 -4 -5 -9 7 -10 -17 -21 -45 -21 -10 0 -19 -4 -19 -10 0 -5 8 -7 18 -4 14 5
14 4 -2 -6 -15 -10 -16 -14 -5 -21 9 -6 4 -8 -16 -3 -23 4 -26 3 -15 -5 13 -9
12 -11 -3 -11 -10 0 -16 -4 -13 -9 3 -4 -8 -7 -25 -5 -27 3 -29 2 -15 -12 9
-8 16 -20 16 -27 0 -6 -7 -2 -16 9 -8 10 -13 13 -9 7 3 -7 1 -14 -4 -14 -6 -1
-16 -2 -22 -3 -6 0 -17 -12 -24 -26 -8 -14 -15 -20 -15 -15 0 6 -7 1 -15 -9
-8 -11 -15 -17 -15 -13 0 12 -52 -38 -60 -58 -7 -16 -9 -13 -9 16 -1 19 -7 41
-13 47 -21 21 -14 134 25 381 21 129 35 236 33 239 -3 2 -306 7 -674 10 l-670
5 -6 -39 c-3 -21 -31 -230 -61 -464 -86 -673 -183 -1418 -195 -1500 -6 -41
-42 -318 -81 -615 -38 -297 -90 -693 -115 -880 -24 -187 -69 -527 -99 -755
-31 -228 -58 -427 -61 -442 l-6 -28 665 0 665 0 6 38 c3 20 31 224 61 452 31
228 105 775 165 1215 60 440 112 818 115 840 31 236 67 488 71 502 4 10 16 38
27 63 12 25 20 60 18 79 -1 19 1 31 7 27 5 -3 8 9 5 30 -2 21 0 33 6 30 5 -4
11 4 14 16 2 13 3 -3 1 -34 -2 -32 1 -60 7 -63 5 -4 19 15 31 42 12 26 46 86
77 133 31 47 57 88 59 93 3 6 23 26 120 117 15 14 45 37 67 50 22 13 42 27 45
30 6 7 116 51 175 70 55 18 226 38 289 33 97 -6 216 -25 216 -34 0 -5 3 -8 8
-7 4 2 35 -9 69 -25 99 -44 217 -184 255 -302 22 -67 39 -176 44 -285 7 -137
-4 -245 -80 -800 -31 -223 -58 -421 -61 -440 -2 -19 -14 -102 -25 -185 -11
-82 -22 -163 -24 -180 -5 -44 -25 -186 -41 -300 -8 -55 -21 -152 -29 -215 -8
-63 -40 -299 -71 -524 -30 -225 -54 -411 -52 -412 1 -1 294 -4 650 -7 449 -2
650 0 654 7 4 6 24 157 44 336 21 179 45 388 54 465 9 77 33 291 55 475 22
184 53 457 70 605 17 149 44 385 60 525 16 140 32 296 35 345 10 141 22 193
74 316 135 316 282 471 521 547 202 65 436 55 591 -24 79 -39 163 -129 205
-217 85 -181 95 -409 34 -839 -6 -38 -21 -154 -35 -256 -31 -244 -116 -873
-179 -1332 -61 -446 -108 -813 -109 -865 l-2 -50 652 -3 651 -2 6 37 c3 21 15
117 27 213 11 96 27 231 35 300 30 255 106 908 154 1330 28 239 57 489 65 555
8 66 33 347 56 625 35 441 39 516 29 590 -26 203 -79 349 -183 506 -194 296
-469 474 -812 528 -131 20 -181 22 -360 15z m-2330 -59 c-3 -5 -12 -10 -18
-10 -7 0 -6 4 3 10 19 12 23 12 15 0z m-1245 -347 c0 -7 -6 -13 -13 -13 -8 0
-14 6 -14 13 0 8 6 14 14 14 7 0 13 -6 13 -14z"/>
<path d="M4415 7440 c4 -6 11 -8 16 -5 14 9 11 15 -7 15 -8 0 -12 -5 -9 -10z"/>
<path d="M3080 5881 c0 -6 4 -13 10 -16 6 -3 7 1 4 9 -7 18 -14 21 -14 7z"/>
</g>
</svg>
